<?xml version="1.0" standalone="yes"?>

<svg version="1.1" viewBox="0.0 0.0 384.0 384.0" fill="none" stroke="none" stroke-linecap="square" stroke-miterlimit="10" xmlns="http://www.w3.org/2000/svg" xmlns:xlink="http://www.w3.org/1999/xlink"><clipPath id="p.0"><path d="m0 0l384.0 0l0 384.0l-384.0 0l0 -384.0z" clip-rule="nonzero"></path></clipPath><g clip-path="url(#p.0)"><path fill="#000000" fill-opacity="0.0" d="m0 0l384.0 0l0 384.0l-384.0 0z" fill-rule="nonzero"></path><path fill="#00ff00" d="m0 192.0l0 0c0 -105.2733 85.96133 -190.61417 192.0 -190.61417l0 0c50.92157 0 99.75751 20.082508 135.7645 55.8296c36.00699 35.74709 56.235504 84.23056 56.235504 134.78458l0 0c0 105.273315 -85.961334 190.61417 -192.0 190.61417l0 0c-106.03867 0 -192.0 -85.34085 -192.0 -190.61417z" fill-rule="nonzero"></path><path stroke="#000000" stroke-width="1.0" stroke-linejoin="round" stroke-linecap="butt" d="m0 192.0l0 0c0 -105.2733 85.96133 -190.61417 192.0 -190.61417l0 0c50.92157 0 99.75751 20.082508 135.7645 55.8296c36.00699 35.74709 56.235504 84.23056 56.235504 134.78458l0 0c0 105.273315 -85.961334 190.61417 -192.0 190.61417l0 0c-106.03867 0 -192.0 -85.34085 -192.0 -190.61417z" fill-rule="nonzero"></path></g></svg>

