<?xml version="1.0" standalone="yes"?>

<svg version="1.1" viewBox="0.0 0.0 488.76377952755905 104.24146981627297" fill="none" stroke="none" stroke-linecap="square" stroke-miterlimit="10" xmlns="http://www.w3.org/2000/svg" xmlns:xlink="http://www.w3.org/1999/xlink"><clipPath id="p.0"><path d="m0 0l488.7638 0l0 104.24147l-488.7638 0l0 -104.24147z" clip-rule="nonzero"></path></clipPath><g clip-path="url(#p.0)"><path fill="#000000" fill-opacity="0.0" d="m0 0l488.7638 0l0 104.24147l-488.7638 0z" fill-rule="nonzero"></path><path fill="#ff9900" d="m215.15617 26.551182l0 0c0 -14.663813 11.5559845 -26.551182 25.81102 -26.551182l0 0c6.8455048 0 13.410645 2.7973485 18.25116 7.776661c4.8404846 4.979312 7.5598755 11.73271 7.5598755 18.77452l0 0c0 14.663811 -11.556 26.551182 -25.811035 26.551182l0 0c-14.255035 0 -25.81102 -11.887371 -25.81102 -26.551182z" fill-rule="nonzero"></path><path stroke="#000000" stroke-width="1.0" stroke-linejoin="round" stroke-linecap="butt" d="m215.15617 26.551182l0 0c0 -14.663813 11.5559845 -26.551182 25.81102 -26.551182l0 0c6.8455048 0 13.410645 2.7973485 18.25116 7.776661c4.8404846 4.979312 7.5598755 11.73271 7.5598755 18.77452l0 0c0 14.663811 -11.556 26.551182 -25.811035 26.551182l0 0c-14.255035 0 -25.81102 -11.887371 -25.81102 -26.551182z" fill-rule="nonzero"></path><path fill="#ffff00" d="m317.74146 26.551182l0 0c0 -14.663813 11.556 -26.551182 25.811035 -26.551182l0 0c6.84552 0 13.410645 2.7973485 18.25116 7.776661c4.8404846 4.979312 7.5598755 11.73271 7.5598755 18.77452l0 0c0 14.663811 -11.556 26.551182 -25.811035 26.551182l0 0c-14.255035 0 -25.811035 -11.887371 -25.811035 -26.551182z" fill-rule="nonzero"></path><path stroke="#000000" stroke-width="1.0" stroke-linejoin="round" stroke-linecap="butt" d="m317.74146 26.551182l0 0c0 -14.663813 11.556 -26.551182 25.811035 -26.551182l0 0c6.84552 0 13.410645 2.7973485 18.25116 7.776661c4.8404846 4.979312 7.5598755 11.73271 7.5598755 18.77452l0 0c0 14.663811 -11.556 26.551182 -25.811035 26.551182l0 0c-14.255035 0 -25.811035 -11.887371 -25.811035 -26.551182z" fill-rule="nonzero"></path><path fill="#ff0000" d="m119.801834 26.551182l0 0c0 -14.663813 11.5559845 -26.551182 25.81102 -26.551182l0 0c6.84552 0 13.410645 2.7973485 18.25116 7.776661c4.8405 4.979312 7.5598755 11.73271 7.5598755 18.77452l0 0c0 14.663811 -11.556 26.551182 -25.811035 26.551182l0 0c-14.255035 0 -25.81102 -11.887371 -25.81102 -26.551182z" fill-rule="nonzero"></path><path stroke="#000000" stroke-width="1.0" stroke-linejoin="round" stroke-linecap="butt" d="m119.801834 26.551182l0 0c0 -14.663813 11.5559845 -26.551182 25.81102 -26.551182l0 0c6.84552 0 13.410645 2.7973485 18.25116 7.776661c4.8405 4.979312 7.5598755 11.73271 7.5598755 18.77452l0 0c0 14.663811 -11.556 26.551182 -25.811035 26.551182l0 0c-14.255035 0 -25.81102 -11.887371 -25.81102 -26.551182z" fill-rule="nonzero"></path><path fill="#00ff00" d="m413.8832 26.551182l0 0c0 -14.663813 11.555969 -26.551182 25.811005 -26.551182l0 0c6.84552 0 13.410645 2.7973485 18.25116 7.776661c4.840515 4.979312 7.5598755 11.73271 7.5598755 18.77452l0 0c0 14.663811 -11.556 26.551182 -25.811035 26.551182l0 0c-14.255035 0 -25.811005 -11.887371 -25.811005 -26.551182z" fill-rule="nonzero"></path><path stroke="#000000" stroke-width="1.0" stroke-linejoin="round" stroke-linecap="butt" d="m413.8832 26.551182l0 0c0 -14.663813 11.555969 -26.551182 25.811005 -26.551182l0 0c6.84552 0 13.410645 2.7973485 18.25116 7.776661c4.840515 4.979312 7.5598755 11.73271 7.5598755 18.77452l0 0c0 14.663811 -11.556 26.551182 -25.811035 26.551182l0 0c-14.255035 0 -25.811005 -11.887371 -25.811005 -26.551182z" fill-rule="nonzero"></path><path fill="#000000" fill-opacity="0.0" d="m-2.522165 64.12861l684.8819 0l0 44.15748l-684.8819 0z" fill-rule="nonzero"></path><path fill="#000000" d="m6.4465847 96.16861l6.59375 -17.1875l2.453125 0l7.03125 17.1875l-2.59375 0l-2.0 -5.203125l-7.1875 0l-1.890625 5.203125l-2.40625 0zm4.953125 -7.0625l5.828125 0l-1.796875 -4.75q-0.8125 -2.171875 -1.21875 -3.5625q-0.328125 1.65625 -0.921875 3.28125l-1.890625 5.03125zm12.2890625 8.09375l2.046875 0.3125q0.125 0.9375 0.71875 1.375q0.78125 0.59375 2.140625 0.59375q1.46875 0 2.265625 -0.59375q0.796875 -0.578125 1.078125 -1.640625q0.1562519 -0.640625 0.1406269 -2.703125q-1.3750019 1.625 -3.437502 1.625q-2.5625 0 -3.96875 -1.84375q-1.40625 -1.859375 -1.40625 -4.453125q0 -1.78125 0.640625 -3.28125q0.640625 -1.515625 1.859375 -2.328125q1.234375 -0.828125 2.890625 -0.828125q2.203125 0 3.625002 1.78125l0 -1.5l1.953125 0l0 10.765625q0 2.90625 -0.59375 4.109375q-0.59375 1.21875 -1.8750019 1.921875q-1.28125 0.703125 -3.15625 0.703125q-2.234375 0 -3.609375 -1.0q-1.359375 -1.0 -1.3125 -3.015625zm1.734375 -7.484375q0 2.453125 0.96875 3.578125q0.984375 1.125 2.453125 1.125q1.453125 0 2.4375 -1.109375q0.9843769 -1.125 0.9843769 -3.515625q0 -2.28125 -1.0156269 -3.4375q-1.015625 -1.171875 -2.453125 -1.171875q-1.40625 0 -2.390625 1.140625q-0.984375 1.140625 -0.984375 3.390625zm20.519533 2.4375l2.171875 0.28125q-0.515625 1.90625 -1.90625 2.96875q-1.390625 1.046875 -3.5625 1.046875q-2.734375 0 -4.34375 -1.671875q-1.59375 -1.6875 -1.59375 -4.734375q0 -3.140625 1.609375 -4.875q1.625 -1.734375 4.203125 -1.734375q2.5 0 4.078125 1.703125q1.59375 1.703125 1.59375 4.78125q0 0.1875 -0.015625 0.5625l-9.28125 0q0.109375 2.046875 1.15625 3.140625q1.046875 1.09375 2.609375 1.09375q1.15625 0 1.96875 -0.609375q0.828125 -0.609375 1.3125 -1.953125zm-6.9375 -3.40625l6.953125 0q-0.140625 -1.5625 -0.796875 -2.359375q-1.0 -1.21875 -2.609375 -1.21875q-1.453125 0 -2.453125 0.984375q-0.984375 0.96875 -1.09375 2.59375z" fill-rule="nonzero"></path><path fill="#000000" d="m117.126274 88.652985l0 -1.96875l11.374992 -4.796875l0 2.09375l-9.015617 3.703125l9.015617 3.734375l0 2.09375l-11.374992 -4.859375zm28.308586 7.515625l-2.109375 0l0 -13.4375q-0.75 0.71875 -2.0 1.453125q-1.234375 0.71875 -2.21875 1.078125l0 -2.03125q1.78125 -0.828125 3.09375 -2.015625q1.328125 -1.1875 1.875 -2.296875l1.359375 0l0 17.25zm5.4101562 -8.46875q0 -3.046875 0.625 -4.90625q0.625 -1.859375 1.859375 -2.859375q1.234375 -1.015625 3.109375 -1.015625q1.390625 0 2.421875 0.5625q1.046875 0.546875 1.71875 1.59375q0.6875 1.046875 1.078125 2.5625q0.390625 1.5 0.390625 4.0625q0 3.015625 -0.625 4.875q-0.625 1.859375 -1.859375 2.875q-1.234375 1.015625 -3.125 1.015625q-2.484375 0 -3.890625 -1.78125q-1.703125 -2.15625 -1.703125 -6.984375zm2.171875 0q0 4.21875 0.984375 5.625q0.984375 1.40625 2.4375 1.40625q1.453125 0 2.4375 -1.40625q1.0 -1.40625 1.0 -5.625q0 -4.25 -1.0 -5.640625q-0.984375 -1.390625 -2.453125 -1.390625q-1.453125 0 -2.328125 1.21875q-1.078125 1.578125 -1.078125 5.8125zm11.566406 -4.59375q0 -1.828125 0.921875 -3.109375q0.9375 -1.296875 2.6875 -1.296875q1.625 0 2.6875 1.15625q1.0625 1.140625 1.0625 3.390625q0 2.171875 -1.078125 3.359375q-1.078125 1.171875 -2.640625 1.171875q-1.5625 0 -2.609375 -1.15625q-1.03125 -1.171875 -1.03125 -3.515625zm3.671875 -2.953125q-0.78125 0 -1.3125 0.6875q-0.515625 0.671875 -0.515625 2.484375q0 1.65625 0.53125 2.328125q0.53125 0.671875 1.296875 0.671875q0.796875 0 1.3125 -0.671875q0.53125 -0.6875 0.53125 -2.5q0 -1.65625 -0.53125 -2.328125q-0.53125 -0.671875 -1.3125 -0.671875zm0.015625 16.65625l9.390625 -18.109375l1.71875 0l-9.359375 18.109375l-1.75 0zm7.421875 -4.671875q0 -1.859375 0.921875 -3.140625q0.9375 -1.28125 2.703125 -1.28125q1.625 0 2.671875 1.15625q1.0625 1.15625 1.0625 3.390625q0 2.1875 -1.078125 3.375q-1.0625 1.171875 -2.640625 1.171875q-1.5625 0 -2.609375 -1.171875q-1.03125 -1.171875 -1.03125 -3.5zm3.6875 -2.96875q-0.796875 0 -1.328125 0.6875q-0.515625 0.671875 -0.515625 2.484375q0 1.640625 0.53125 2.328125q0.53125 0.671875 1.296875 0.671875q0.8125 0 1.328125 -0.671875q0.53125 -0.6875 0.53125 -2.484375q0 -1.671875 -0.53125 -2.34375q-0.53125 -0.671875 -1.3125 -0.671875z" fill-rule="nonzero"></path><path fill="#000000" d="m213.12627 88.652985l0 -1.96875l11.375 -4.796875l0 2.09375l-9.015625 3.703125l9.015625 3.734375l0 2.09375l-11.375 -4.859375zm20.386719 2.984375l2.109375 -0.28125q0.359375 1.78125 1.234375 2.578125q0.875 0.796875 2.125 0.796875q1.484375 0 2.5 -1.03125q1.03125 -1.03125 1.03125 -2.5625q0 -1.453125 -0.953125 -2.390625q-0.9375 -0.953125 -2.40625 -0.953125q-0.59375 0 -1.484375 0.234375l0.234375 -1.84375q0.203125 0.015625 0.34375 0.015625q1.34375 0 2.421875 -0.703125q1.078125 -0.703125 1.078125 -2.15625q0 -1.171875 -0.796875 -1.921875q-0.78125 -0.765625 -2.015625 -0.765625q-1.234375 0 -2.0625 0.78125q-0.8125 0.765625 -1.046875 2.3125l-2.109375 -0.375q0.390625 -2.125 1.75 -3.28125q1.375 -1.171875 3.421875 -1.171875q1.40625 0 2.578125 0.609375q1.1875 0.59375 1.8125 1.640625q0.640625 1.046875 0.640625 2.21875q0 1.109375 -0.609375 2.03125q-0.59375 0.90625 -1.765625 1.4375q1.53125 0.359375 2.375 1.46875q0.84375 1.109375 0.84375 2.765625q0 2.25 -1.640625 3.828125q-1.640625 1.5625 -4.15625 1.5625q-2.265625 0 -3.765625 -1.34375q-1.484375 -1.359375 -1.6875 -3.5zm13.332031 -3.9375q0 -3.046875 0.625 -4.90625q0.625 -1.859375 1.859375 -2.859375q1.234375 -1.015625 3.109375 -1.015625q1.390625 0 2.421875 0.5625q1.046875 0.546875 1.7187653 1.59375q0.6875 1.046875 1.078125 2.5625q0.390625 1.5 0.390625 4.0625q0 3.015625 -0.625 4.875q-0.625 1.859375 -1.8593903 2.875q-1.234375 1.015625 -3.125 1.015625q-2.484375 0 -3.890625 -1.78125q-1.703125 -2.15625 -1.703125 -6.984375zm2.171875 0q0 4.21875 0.984375 5.625q0.984375 1.40625 2.4375 1.40625q1.453125 0 2.4375 -1.40625q1.0 -1.40625 1.0 -5.625q0 -4.25 -1.0 -5.640625q-0.984375 -1.390625 -2.453125 -1.390625q-1.453125 0 -2.328125 1.21875q-1.078125 1.578125 -1.078125 5.8125zm11.5664215 -4.59375q0 -1.828125 0.921875 -3.109375q0.9375 -1.296875 2.6875 -1.296875q1.625 0 2.6875 1.15625q1.0625 1.140625 1.0625 3.390625q0 2.171875 -1.078125 3.359375q-1.078125 1.171875 -2.640625 1.171875q-1.5625 0 -2.609375 -1.15625q-1.03125 -1.171875 -1.03125 -3.515625zm3.671875 -2.953125q-0.78125 0 -1.3125 0.6875q-0.515625 0.671875 -0.515625 2.484375q0 1.65625 0.53125 2.328125q0.53125 0.671875 1.296875 0.671875q0.796875 0 1.3125 -0.671875q0.53125 -0.6875 0.53125 -2.5q0 -1.65625 -0.53125 -2.328125q-0.53125 -0.671875 -1.3125 -0.671875zm0.015625 16.65625l9.390625 -18.109375l1.71875 0l-9.359375 18.109375l-1.75 0zm7.421875 -4.671875q0 -1.859375 0.921875 -3.140625q0.9375 -1.28125 2.703125 -1.28125q1.625 0 2.671875 1.15625q1.0625 1.15625 1.0625 3.390625q0 2.1875 -1.078125 3.375q-1.0625 1.171875 -2.640625 1.171875q-1.5625 0 -2.609375 -1.171875q-1.03125 -1.171875 -1.03125 -3.5zm3.6875 -2.96875q-0.796875 0 -1.328125 0.6875q-0.515625 0.671875 -0.515625 2.484375q0 1.640625 0.53125 2.328125q0.53125 0.671875 1.296875 0.671875q0.8125 0 1.328125 -0.671875q0.53125 -0.6875 0.53125 -2.484375q0 -1.671875 -0.53125 -2.34375q-0.53125 -0.671875 -1.3125 -0.671875z" fill-rule="nonzero"></path><path fill="#000000" d="m309.12628 88.652985l0 -1.96875l11.375 -4.796875l0 2.09375l-9.015625 3.703125l9.015625 3.734375l0 2.09375l-11.375 -4.859375zm31.308594 -5.453125l-2.09375 0.15625q-0.28125 -1.234375 -0.796875 -1.796875q-0.859375 -0.90625 -2.109375 -0.90625q-1.0 0 -1.765625 0.5625q-1.0 0.71875 -1.578125 2.125q-0.5625 1.390625 -0.59375 3.96875q0.765625 -1.15625 1.859375 -1.71875q1.109375 -0.5625 2.3125 -0.5625q2.109375 0 3.59375 1.546875q1.484375 1.546875 1.484375 4.015625q0 1.609375 -0.703125 3.0q-0.6875 1.390625 -1.90625 2.140625q-1.21875 0.734375 -2.765625 0.734375q-2.640625 0 -4.3125 -1.9375q-1.65625 -1.953125 -1.65625 -6.40625q0 -4.96875 1.84375 -7.234375q1.59375 -1.96875 4.3125 -1.96875q2.03125 0 3.328125 1.140625q1.296875 1.125 1.546875 3.140625zm-8.609375 7.40625q0 1.078125 0.453125 2.078125q0.46875 1.0 1.296875 1.53125q0.84375 0.515625 1.75 0.515625q1.34375 0 2.296875 -1.078125q0.96875 -1.078125 0.96875 -2.9375q0 -1.78125 -0.953125 -2.796875q-0.953125 -1.03125 -2.390625 -1.03125q-1.421875 0 -2.421875 1.03125q-1.0 1.015625 -1.0 2.6875zm11.019531 -2.90625q0 -3.046875 0.625 -4.90625q0.625 -1.859375 1.859375 -2.859375q1.234375 -1.015625 3.109375 -1.015625q1.390625 0 2.421875 0.5625q1.046875 0.546875 1.71875 1.59375q0.6875 1.046875 1.078125 2.5625q0.390625 1.5 0.390625 4.0625q0 3.015625 -0.625 4.875q-0.625 1.859375 -1.859375 2.875q-1.234375 1.015625 -3.125 1.015625q-2.484375 0 -3.890625 -1.78125q-1.703125 -2.15625 -1.703125 -6.984375zm2.171875 0q0 4.21875 0.984375 5.625q0.984375 1.40625 2.4375 1.40625q1.453125 0 2.4375 -1.40625q1.0 -1.40625 1.0 -5.625q0 -4.25 -1.0 -5.640625q-0.984375 -1.390625 -2.453125 -1.390625q-1.453125 0 -2.328125 1.21875q-1.078125 1.578125 -1.078125 5.8125zm11.566406 -4.59375q0 -1.828125 0.921875 -3.109375q0.9375 -1.296875 2.6875 -1.296875q1.625 0 2.6875 1.15625q1.0625 1.140625 1.0625 3.390625q0 2.171875 -1.078125 3.359375q-1.078125 1.171875 -2.640625 1.171875q-1.5625 0 -2.609375 -1.15625q-1.03125 -1.171875 -1.03125 -3.515625zm3.671875 -2.953125q-0.78125 0 -1.3125 0.6875q-0.515625 0.671875 -0.515625 2.484375q0 1.65625 0.53125 2.328125q0.53125 0.671875 1.296875 0.671875q0.796875 0 1.3125 -0.671875q0.53125 -0.6875 0.53125 -2.5q0 -1.65625 -0.53125 -2.328125q-0.53125 -0.671875 -1.3125 -0.671875zm0.015625 16.65625l9.390625 -18.109375l1.71875 0l-9.359375 18.109375l-1.75 0zm7.421875 -4.671875q0 -1.859375 0.921875 -3.140625q0.9375 -1.28125 2.703125 -1.28125q1.625 0 2.671875 1.15625q1.0625 1.15625 1.0625 3.390625q0 2.1875 -1.078125 3.375q-1.0625 1.171875 -2.640625 1.171875q-1.5625 0 -2.609375 -1.171875q-1.03125 -1.171875 -1.03125 -3.5zm3.6875 -2.96875q-0.796875 0 -1.328125 0.6875q-0.515625 0.671875 -0.515625 2.484375q0 1.640625 0.53125 2.328125q0.53125 0.671875 1.296875 0.671875q0.8125 0 1.328125 -0.671875q0.53125 -0.6875 0.53125 -2.484375q0 -1.671875 -0.53125 -2.34375q-0.53125 -0.671875 -1.3125 -0.671875z" fill-rule="nonzero"></path><path fill="#000000" d="m405.12628 88.652985l0 -1.96875l11.375 -4.796875l0 2.09375l-9.015625 3.703125l9.015625 3.734375l0 2.09375l-11.375 -4.859375zm28.308594 7.515625l-2.109375 0l0 -13.4375q-0.75 0.71875 -2.0 1.453125q-1.234375 0.71875 -2.21875 1.078125l0 -2.03125q1.78125 -0.828125 3.09375 -2.015625q1.328125 -1.1875 1.875 -2.296875l1.359375 0l0 17.25zm5.4101562 -8.46875q0 -3.046875 0.625 -4.90625q0.625 -1.859375 1.859375 -2.859375q1.234375 -1.015625 3.109375 -1.015625q1.390625 0 2.421875 0.5625q1.046875 0.546875 1.71875 1.59375q0.6875 1.046875 1.078125 2.5625q0.390625 1.5 0.390625 4.0625q0 3.015625 -0.625 4.875q-0.625 1.859375 -1.859375 2.875q-1.234375 1.015625 -3.125 1.015625q-2.484375 0 -3.890625 -1.78125q-1.703125 -2.15625 -1.703125 -6.984375zm2.171875 0q0 4.21875 0.984375 5.625q0.984375 1.40625 2.4375 1.40625q1.453125 0 2.4375 -1.40625q1.0 -1.40625 1.0 -5.625q0 -4.25 -1.0 -5.640625q-0.984375 -1.390625 -2.453125 -1.390625q-1.453125 0 -2.328125 1.21875q-1.078125 1.578125 -1.078125 5.8125zm11.175781 0q0 -3.046875 0.625 -4.90625q0.625 -1.859375 1.859375 -2.859375q1.234375 -1.015625 3.109375 -1.015625q1.390625 0 2.421875 0.5625q1.046875 0.546875 1.71875 1.59375q0.6875 1.046875 1.078125 2.5625q0.390625 1.5 0.390625 4.0625q0 3.015625 -0.625 4.875q-0.625 1.859375 -1.859375 2.875q-1.234375 1.015625 -3.125 1.015625q-2.484375 0 -3.890625 -1.78125q-1.703125 -2.15625 -1.703125 -6.984375zm2.171875 0q0 4.21875 0.984375 5.625q0.984375 1.40625 2.4375 1.40625q1.453125 0 2.4375 -1.40625q1.0 -1.40625 1.0 -5.625q0 -4.25 -1.0 -5.640625q-0.984375 -1.390625 -2.453125 -1.390625q-1.453125 0 -2.328125 1.21875q-1.078125 1.578125 -1.078125 5.8125zm11.566406 -4.59375q0 -1.828125 0.921875 -3.109375q0.9375 -1.296875 2.6875 -1.296875q1.625 0 2.6875 1.15625q1.0625 1.140625 1.0625 3.390625q0 2.171875 -1.078125 3.359375q-1.078125 1.171875 -2.640625 1.171875q-1.5625 0 -2.609375 -1.15625q-1.03125 -1.171875 -1.03125 -3.515625zm3.671875 -2.953125q-0.78125 0 -1.3125 0.6875q-0.515625 0.671875 -0.515625 2.484375q0 1.65625 0.53125 2.328125q0.53125 0.671875 1.296875 0.671875q0.796875 0 1.3125 -0.671875q0.53125 -0.6875 0.53125 -2.5q0 -1.65625 -0.53125 -2.328125q-0.53125 -0.671875 -1.3125 -0.671875zm0.015625 16.65625l9.390625 -18.109375l1.71875 0l-9.359375 18.109375l-1.75 0zm7.421875 -4.671875q0 -1.859375 0.921875 -3.140625q0.9375 -1.28125 2.703125 -1.28125q1.625 0 2.671875 1.15625q1.0625 1.15625 1.0625 3.390625q0 2.1875 -1.078125 3.375q-1.0625 1.171875 -2.640625 1.171875q-1.5625 0 -2.609375 -1.171875q-1.03125 -1.171875 -1.03125 -3.5zm3.6875 -2.96875q-0.796875 0 -1.328125 0.6875q-0.515625 0.671875 -0.515625 2.484375q0 1.640625 0.53125 2.328125q0.53125 0.671875 1.296875 0.671875q0.8125 0 1.328125 -0.671875q0.53125 -0.6875 0.53125 -2.484375q0 -1.671875 -0.53125 -2.34375q-0.53125 -0.671875 -1.3125 -0.671875z" fill-rule="nonzero"></path></g></svg>

