<?xml version="1.0" standalone="yes"?>

<svg version="1.1" viewBox="0.0 0.0 593.9501312335958 104.43832020997375" fill="none" stroke="none" stroke-linecap="square" stroke-miterlimit="10" xmlns="http://www.w3.org/2000/svg" xmlns:xlink="http://www.w3.org/1999/xlink"><clipPath id="p.0"><path d="m0 0l593.95013 0l0 104.438324l-593.95013 0l0 -104.438324z" clip-rule="nonzero"></path></clipPath><g clip-path="url(#p.0)"><path fill="#000000" fill-opacity="0.0" d="m0 0l593.95013 0l0 104.438324l-593.95013 0z" fill-rule="nonzero"></path><path fill="#ffff00" d="m215.15617 26.551182l0 0c0 -14.663813 11.5559845 -26.551182 25.81102 -26.551182l0 0c6.8455048 0 13.410645 2.7973485 18.25116 7.776661c4.8404846 4.979312 7.5598755 11.73271 7.5598755 18.77452l0 0c0 14.663811 -11.556 26.551182 -25.811035 26.551182l0 0c-14.255035 0 -25.81102 -11.887371 -25.81102 -26.551182z" fill-rule="nonzero"></path><path stroke="#000000" stroke-width="1.0" stroke-linejoin="round" stroke-linecap="butt" d="m215.15617 26.551182l0 0c0 -14.663813 11.5559845 -26.551182 25.81102 -26.551182l0 0c6.8455048 0 13.410645 2.7973485 18.25116 7.776661c4.8404846 4.979312 7.5598755 11.73271 7.5598755 18.77452l0 0c0 14.663811 -11.556 26.551182 -25.811035 26.551182l0 0c-14.255035 0 -25.81102 -11.887371 -25.81102 -26.551182z" fill-rule="nonzero"></path><path fill="#ff9900" d="m309.74146 26.551182l0 0c0 -14.663813 11.556 -26.551182 25.811035 -26.551182l0 0c6.84552 0 13.410645 2.7973485 18.25116 7.776661c4.8404846 4.979312 7.5598755 11.73271 7.5598755 18.77452l0 0c0 14.663811 -11.556 26.551182 -25.811035 26.551182l0 0c-14.255035 0 -25.811035 -11.887371 -25.811035 -26.551182z" fill-rule="nonzero"></path><path stroke="#000000" stroke-width="1.0" stroke-linejoin="round" stroke-linecap="butt" d="m309.74146 26.551182l0 0c0 -14.663813 11.556 -26.551182 25.811035 -26.551182l0 0c6.84552 0 13.410645 2.7973485 18.25116 7.776661c4.8404846 4.979312 7.5598755 11.73271 7.5598755 18.77452l0 0c0 14.663811 -11.556 26.551182 -25.811035 26.551182l0 0c-14.255035 0 -25.811035 -11.887371 -25.811035 -26.551182z" fill-rule="nonzero"></path><path fill="#00ff00" d="m119.801834 26.551182l0 0c0 -14.663813 11.5559845 -26.551182 25.81102 -26.551182l0 0c6.84552 0 13.410645 2.7973485 18.25116 7.776661c4.8405 4.979312 7.5598755 11.73271 7.5598755 18.77452l0 0c0 14.663811 -11.556 26.551182 -25.811035 26.551182l0 0c-14.255035 0 -25.81102 -11.887371 -25.81102 -26.551182z" fill-rule="nonzero"></path><path stroke="#000000" stroke-width="1.0" stroke-linejoin="round" stroke-linecap="butt" d="m119.801834 26.551182l0 0c0 -14.663813 11.5559845 -26.551182 25.81102 -26.551182l0 0c6.84552 0 13.410645 2.7973485 18.25116 7.776661c4.8405 4.979312 7.5598755 11.73271 7.5598755 18.77452l0 0c0 14.663811 -11.556 26.551182 -25.811035 26.551182l0 0c-14.255035 0 -25.81102 -11.887371 -25.81102 -26.551182z" fill-rule="nonzero"></path><path fill="#ff0000" d="m413.8832 26.551182l0 0c0 -14.663813 11.555969 -26.551182 25.811005 -26.551182l0 0c6.84552 0 13.410645 2.7973485 18.25116 7.776661c4.840515 4.979312 7.5598755 11.73271 7.5598755 18.77452l0 0c0 14.663811 -11.556 26.551182 -25.811035 26.551182l0 0c-14.255035 0 -25.811005 -11.887371 -25.811005 -26.551182z" fill-rule="nonzero"></path><path stroke="#000000" stroke-width="1.0" stroke-linejoin="round" stroke-linecap="butt" d="m413.8832 26.551182l0 0c0 -14.663813 11.555969 -26.551182 25.811005 -26.551182l0 0c6.84552 0 13.410645 2.7973485 18.25116 7.776661c4.840515 4.979312 7.5598755 11.73271 7.5598755 18.77452l0 0c0 14.663811 -11.556 26.551182 -25.811035 26.551182l0 0c-14.255035 0 -25.811005 -11.887371 -25.811005 -26.551182z" fill-rule="nonzero"></path><path fill="#ffffff" d="m510.02493 26.551182l0 0c0 -14.663813 11.556 -26.551182 25.811005 -26.551182l0 0c6.84552 0 13.410645 2.7973485 18.25116 7.776661c4.840515 4.979312 7.5598755 11.73271 7.5598755 18.77452l0 0c0 14.663811 -11.555969 26.551182 -25.811035 26.551182l0 0c-14.255005 0 -25.811005 -11.887371 -25.811005 -26.551182z" fill-rule="nonzero"></path><path stroke="#000000" stroke-width="1.0" stroke-linejoin="round" stroke-linecap="butt" d="m510.02493 26.551182l0 0c0 -14.663813 11.556 -26.551182 25.811005 -26.551182l0 0c6.84552 0 13.410645 2.7973485 18.25116 7.776661c4.840515 4.979312 7.5598755 11.73271 7.5598755 18.77452l0 0c0 14.663811 -11.555969 26.551182 -25.811035 26.551182l0 0c-14.255005 0 -25.811005 -11.887371 -25.811005 -26.551182z" fill-rule="nonzero"></path><path fill="#000000" fill-opacity="0.0" d="m-2.522165 64.12861l684.8819 0l0 44.15748l-684.8819 0z" fill-rule="nonzero"></path><path fill="#000000" d="m6.4465847 96.16861l6.59375 -17.1875l2.453125 0l7.03125 17.1875l-2.59375 0l-2.0 -5.203125l-7.1875 0l-1.890625 5.203125l-2.40625 0zm4.953125 -7.0625l5.828125 0l-1.796875 -4.75q-0.8125 -2.171875 -1.21875 -3.5625q-0.328125 1.65625 -0.921875 3.28125l-1.890625 5.03125zm12.2890625 8.09375l2.046875 0.3125q0.125 0.9375 0.71875 1.375q0.78125 0.59375 2.140625 0.59375q1.46875 0 2.265625 -0.59375q0.796875 -0.578125 1.078125 -1.640625q0.1562519 -0.640625 0.1406269 -2.703125q-1.3750019 1.625 -3.437502 1.625q-2.5625 0 -3.96875 -1.84375q-1.40625 -1.859375 -1.40625 -4.453125q0 -1.78125 0.640625 -3.28125q0.640625 -1.515625 1.859375 -2.328125q1.234375 -0.828125 2.890625 -0.828125q2.203125 0 3.625002 1.78125l0 -1.5l1.953125 0l0 10.765625q0 2.90625 -0.59375 4.109375q-0.59375 1.21875 -1.8750019 1.921875q-1.28125 0.703125 -3.15625 0.703125q-2.234375 0 -3.609375 -1.0q-1.359375 -1.0 -1.3125 -3.015625zm1.734375 -7.484375q0 2.453125 0.96875 3.578125q0.984375 1.125 2.453125 1.125q1.453125 0 2.4375 -1.109375q0.9843769 -1.125 0.9843769 -3.515625q0 -2.28125 -1.0156269 -3.4375q-1.015625 -1.171875 -2.453125 -1.171875q-1.40625 0 -2.390625 1.140625q-0.984375 1.140625 -0.984375 3.390625zm20.519533 2.4375l2.171875 0.28125q-0.515625 1.90625 -1.90625 2.96875q-1.390625 1.046875 -3.5625 1.046875q-2.734375 0 -4.34375 -1.671875q-1.59375 -1.6875 -1.59375 -4.734375q0 -3.140625 1.609375 -4.875q1.625 -1.734375 4.203125 -1.734375q2.5 0 4.078125 1.703125q1.59375 1.703125 1.59375 4.78125q0 0.1875 -0.015625 0.5625l-9.28125 0q0.109375 2.046875 1.15625 3.140625q1.046875 1.09375 2.609375 1.09375q1.15625 0 1.96875 -0.609375q0.828125 -0.609375 1.3125 -1.953125zm-6.9375 -3.40625l6.953125 0q-0.140625 -1.5625 -0.796875 -2.359375q-1.0 -1.21875 -2.609375 -1.21875q-1.453125 0 -2.453125 0.984375q-0.984375 0.96875 -1.09375 2.59375z" fill-rule="nonzero"></path><path fill="#000000" d="m117.126274 88.652985l0 -1.96875l11.374992 -4.796875l0 2.09375l-9.015617 3.703125l9.015617 3.734375l0 2.09375l-11.374992 -4.859375zm21.292961 7.515625l0 -17.1875l2.28125 0l0 7.0625l8.921875 0l0 -7.0625l2.28125 0l0 17.1875l-2.28125 0l0 -8.09375l-8.921875 0l0 8.09375l-2.28125 0zm16.207031 -6.21875q0 -3.46875 1.921875 -5.125q1.609375 -1.390625 3.921875 -1.390625q2.5625 0 4.1875 1.6875q1.625 1.6875 1.625 4.640625q0 2.40625 -0.71875 3.78125q-0.71875 1.375 -2.09375 2.140625q-1.375 0.765625 -3.0 0.765625q-2.625 0 -4.234375 -1.671875q-1.609375 -1.6875 -1.609375 -4.828125zm2.171875 0q0 2.390625 1.03125 3.578125q1.046875 1.1875 2.640625 1.1875q1.5625 0 2.609375 -1.1875q1.046875 -1.203125 1.046875 -3.65625q0 -2.3125 -1.0625 -3.5q-1.046875 -1.1875 -2.59375 -1.1875q-1.59375 0 -2.640625 1.1875q-1.03125 1.1875 -1.03125 3.578125zm20.113281 6.21875l0 -1.828125q-1.453125 2.109375 -3.9375 2.109375q-1.109375 0 -2.0625 -0.421875q-0.953125 -0.421875 -1.421875 -1.0625q-0.453125 -0.640625 -0.640625 -1.5625q-0.140625 -0.625 -0.140625 -1.96875l0 -7.71875l2.109375 0l0 6.90625q0 1.65625 0.140625 2.234375q0.1875 0.828125 0.828125 1.3125q0.65625 0.46875 1.609375 0.46875q0.9375 0 1.765625 -0.484375q0.84375 -0.5 1.1875 -1.328125q0.34375 -0.84375 0.34375 -2.4375l0 -6.671875l2.109375 0l0 12.453125l-1.890625 0zm5.1757812 0l0 -12.453125l1.890625 0l0 1.890625q0.734375 -1.328125 1.34375 -1.75q0.625 -0.421875 1.359375 -0.421875q1.0625 0 2.171875 0.6875l-0.734375 1.953125q-0.765625 -0.453125 -1.546875 -0.453125q-0.6875 0 -1.25 0.421875q-0.546875 0.40625 -0.78125 1.140625q-0.34375 1.125 -0.34375 2.46875l0 6.515625l-2.109375 0z" fill-rule="nonzero"></path><path fill="#000000" d="m213.12627 88.652985l0 -1.96875l11.375 -4.796875l0 2.09375l-9.015625 3.703125l9.015625 3.734375l0 2.09375l-11.375 -4.859375zm21.230469 7.515625l0 -17.1875l5.90625 0q2.015625 0 3.0625 0.25q1.484375 0.34375 2.515625 1.234375q1.359375 1.140625 2.03125 2.9375q0.6875 1.78125 0.6875 4.078125q0 1.953125 -0.46875 3.46875q-0.453125 1.515625 -1.171875 2.515625q-0.703125 0.984375 -1.5625 1.546875q-0.84375 0.5625 -2.046875 0.859375q-1.203125 0.296875 -2.765625 0.296875l-6.1875 0zm2.265625 -2.03125l3.671875 0q1.703125 0 2.65625 -0.3125q0.96875 -0.3125 1.546875 -0.890625q0.8125 -0.8125 1.265625 -2.171875q0.453125 -1.375 0.453125 -3.3125q0 -2.703125 -0.890625 -4.140625q-0.890625 -1.453125 -2.15625 -1.9375q-0.90625 -0.359375 -2.9375 -0.359375l-3.609375 0l0 13.125zm22.910172 0.5q-1.171875 0.984375 -2.265625 1.40625q-1.078125 0.40625 -2.3125153 0.40625q-2.046875 0 -3.15625 -1.0q-1.09375 -1.0 -1.09375 -2.5625q0 -0.921875 0.40625 -1.671875q0.421875 -0.75 1.09375 -1.203125q0.671875 -0.46875 1.515625 -0.703125q0.625 -0.15625 1.875 -0.3125q2.5625153 -0.3125 3.7656403 -0.734375q0.015625 -0.421875 0.015625 -0.546875q0 -1.28125 -0.609375 -1.8125q-0.796875 -0.71875 -2.390625 -0.71875q-1.5000153 0 -2.2031403 0.53125q-0.703125 0.515625 -1.046875 1.84375l-2.0625 -0.28125q0.28125 -1.328125 0.921875 -2.140625q0.640625 -0.8125 1.859375 -1.25q1.21875 -0.453125 2.8281403 -0.453125q1.59375 0 2.59375 0.375q1.0 0.375 1.46875 0.953125q0.46875 0.5625 0.65625 1.4375q0.09375 0.53125 0.09375 1.9375l0 2.8125q0 2.9375 0.140625 3.71875q0.140625 0.78125 0.53125 1.5l-2.203125 0q-0.328125 -0.65625 -0.421875 -1.53125zm-0.171875 -4.71875q-1.15625 0.46875 -3.4531403 0.796875q-1.296875 0.1875 -1.84375 0.421875q-0.53125 0.234375 -0.828125 0.6875q-0.28125 0.453125 -0.28125 1.0q0 0.84375 0.625 1.40625q0.640625 0.5625 1.875 0.5625q1.2187653 0 2.1718903 -0.53125q0.953125 -0.53125 1.390625 -1.453125q0.34375 -0.71875 0.34375 -2.109375l0 -0.78125zm5.3007812 11.046875l-0.234375 -1.984375q0.703125 0.1875 1.21875 0.1875q0.703125 0 1.125 -0.234375q0.421875 -0.234375 0.6875 -0.65625q0.203125 -0.3125 0.640625 -1.5625q0.0625 -0.1875 0.1875 -0.515625l-4.71875 -12.484375l2.265625 0l2.59375 7.21875q0.5 1.359375 0.90625 2.875q0.359375 -1.453125 0.859375 -2.828125l2.671875 -7.265625l2.109375 0l-4.734375 12.671875q-0.765625 2.046875 -1.1875 2.8125q-0.5625 1.046875 -1.296875 1.53125q-0.71875 0.484375 -1.734375 0.484375q-0.609375 0 -1.359375 -0.25z" fill-rule="nonzero"></path><path fill="#000000" d="m302.4583 88.652985l0 -1.96875l11.375 -4.796875l0 2.09375l-9.015625 3.703125l9.015625 3.734375l0 2.09375l-11.375 -4.859375zm24.230469 7.515625l-4.5625 -17.1875l2.328125 0l2.609375 11.265625q0.421875 1.765625 0.734375 3.515625q0.65625 -2.75 0.765625 -3.171875l3.28125 -11.609375l2.734375 0l2.46875 8.703125q0.921875 3.234375 1.328125 6.078125q0.328125 -1.625 0.859375 -3.734375l2.6875 -11.046875l2.296875 0l-4.71875 17.1875l-2.1875 0l-3.625 -13.09375q-0.453125 -1.640625 -0.53125 -2.015625q-0.28125 1.1875 -0.515625 2.015625l-3.640625 13.09375l-2.3125 0zm27.902344 -4.015625l2.171875 0.28125q-0.515625 1.90625 -1.90625 2.96875q-1.390625 1.046875 -3.5625 1.046875q-2.734375 0 -4.34375 -1.671875q-1.59375 -1.6875 -1.59375 -4.734375q0 -3.140625 1.609375 -4.875q1.625 -1.734375 4.203125 -1.734375q2.5 0 4.078125 1.703125q1.59375 1.703125 1.59375 4.78125q0 0.1875 -0.015625 0.5625l-9.28125 0q0.109375 2.046875 1.15625 3.140625q1.046875 1.09375 2.609375 1.09375q1.15625 0 1.96875 -0.609375q0.828125 -0.609375 1.3125 -1.953125zm-6.9375 -3.40625l6.953125 0q-0.140625 -1.5625 -0.796875 -2.359375q-1.0 -1.21875 -2.609375 -1.21875q-1.453125 0 -2.453125 0.984375q-0.984375 0.96875 -1.09375 2.59375zm20.285156 3.40625l2.171875 0.28125q-0.515625 1.90625 -1.90625 2.96875q-1.390625 1.046875 -3.5625 1.046875q-2.734375 0 -4.34375 -1.671875q-1.59375 -1.6875 -1.59375 -4.734375q0 -3.140625 1.609375 -4.875q1.625 -1.734375 4.203125 -1.734375q2.5 0 4.078125 1.703125q1.59375 1.703125 1.59375 4.78125q0 0.1875 -0.015625 0.5625l-9.28125 0q0.109375 2.046875 1.15625 3.140625q1.046875 1.09375 2.609375 1.09375q1.15625 0 1.96875 -0.609375q0.828125 -0.609375 1.3125 -1.953125zm-6.9375 -3.40625l6.953125 0q-0.140625 -1.5625 -0.796875 -2.359375q-1.0 -1.21875 -2.609375 -1.21875q-1.453125 0 -2.453125 0.984375q-0.984375 0.96875 -1.09375 2.59375zm11.769531 7.421875l0 -17.1875l2.109375 0l0 9.796875l5.0 -5.0625l2.71875 0l-4.75 4.625l5.234375 7.828125l-2.59375 0l-4.125 -6.359375l-1.484375 1.421875l0 4.9375l-2.109375 0z" fill-rule="nonzero"></path><path fill="#000000" d="m405.12628 88.652985l0 -1.96875l11.375 -4.796875l0 2.09375l-9.015625 3.703125l9.015625 3.734375l0 2.09375l-11.375 -4.859375zm21.152344 7.515625l0 -17.1875l3.421875 0l4.0625 12.171875q0.5625 1.703125 0.828125 2.546875q0.296875 -0.9375 0.90625 -2.765625l4.125 -11.953125l3.046875 0l0 17.1875l-2.1875 0l0 -14.375l-4.984375 14.375l-2.0625 0l-4.96875 -14.625l0 14.625l-2.1875 0zm19.007812 -6.21875q0 -3.46875 1.921875 -5.125q1.609375 -1.390625 3.921875 -1.390625q2.5625 0 4.1875 1.6875q1.625 1.6875 1.625 4.640625q0 2.40625 -0.71875 3.78125q-0.71875 1.375 -2.09375 2.140625q-1.375 0.765625 -3.0 0.765625q-2.625 0 -4.234375 -1.671875q-1.609375 -1.6875 -1.609375 -4.828125zm2.171875 0q0 2.390625 1.03125 3.578125q1.046875 1.1875 2.640625 1.1875q1.5625 0 2.609375 -1.1875q1.046875 -1.203125 1.046875 -3.65625q0 -2.3125 -1.0625 -3.5q-1.046875 -1.1875 -2.59375 -1.1875q-1.59375 0 -2.640625 1.1875q-1.03125 1.1875 -1.03125 3.578125zm11.957031 6.21875l0 -12.453125l1.90625 0l0 1.78125q1.375 -2.0625 3.953125 -2.0625q1.125 0 2.0625 0.40625q0.953125 0.40625 1.421875 1.0625q0.46875 0.65625 0.65625 1.5625q0.125 0.578125 0.125 2.046875l0 7.65625l-2.109375 0l0 -7.578125q0 -1.28125 -0.25 -1.921875q-0.25 -0.640625 -0.875 -1.015625q-0.625 -0.390625 -1.46875 -0.390625q-1.34375 0 -2.328125 0.859375q-0.984375 0.859375 -0.984375 3.25l0 6.796875l-2.109375 0zm17.957031 -1.890625l0.3125 1.859375q-0.890625 0.203125 -1.59375 0.203125q-1.15625 0 -1.796875 -0.359375q-0.625 -0.375 -0.890625 -0.96875q-0.25 -0.59375 -0.25 -2.484375l0 -7.171875l-1.546875 0l0 -1.640625l1.546875 0l0 -3.078125l2.09375 -1.265625l0 4.34375l2.125 0l0 1.640625l-2.125 0l0 7.28125q0 0.90625 0.109375 1.171875q0.125 0.25 0.375 0.40625q0.25 0.140625 0.71875 0.140625q0.34375 0 0.921875 -0.078125zm2.0585938 1.890625l0 -17.1875l2.109375 0l0 6.171875q1.484375 -1.71875 3.734375 -1.71875q1.375 0 2.390625 0.546875q1.03125 0.546875 1.46875 1.515625q0.4375 0.953125 0.4375 2.78125l0 7.890625l-2.109375 0l0 -7.890625q0 -1.578125 -0.6875 -2.296875q-0.6875 -0.71875 -1.9375 -0.71875q-0.9375 0 -1.765625 0.484375q-0.828125 0.484375 -1.1875 1.3125q-0.34375 0.828125 -0.34375 2.296875l0 6.8125l-2.109375 0zm37.79297 -7.515625l-11.375 4.859375l0 -2.09375l9.015625 -3.734375l-9.015625 -3.703125l0 -2.09375l11.375 4.796875l0 1.96875zm9.777344 7.515625l0 -17.1875l3.421875 0l4.0625 12.171875q0.5625 1.703125 0.828125 2.546875q0.296875 -0.9375 0.90625 -2.765625l4.125 -11.953125l3.046875 0l0 17.1875l-2.1875 0l0 -14.375l-4.984375 14.375l-2.0625 0l-4.96875 -14.625l0 14.625l-2.1875 0zm19.007812 -6.21875q0 -3.46875 1.921875 -5.125q1.609375 -1.390625 3.921875 -1.390625q2.5625 0 4.1875 1.6875q1.625 1.6875 1.625 4.640625q0 2.40625 -0.71875 3.78125q-0.71875 1.375 -2.09375 2.140625q-1.375 0.765625 -3.0 0.765625q-2.625 0 -4.234375 -1.671875q-1.609375 -1.6875 -1.609375 -4.828125zm2.171875 0q0 2.390625 1.03125 3.578125q1.046875 1.1875 2.640625 1.1875q1.5625 0 2.609375 -1.1875q1.046875 -1.203125 1.046875 -3.65625q0 -2.3125 -1.0625 -3.5q-1.046875 -1.1875 -2.59375 -1.1875q-1.59375 0 -2.640625 1.1875q-1.03125 1.1875 -1.03125 3.578125zm11.957031 6.21875l0 -12.453125l1.90625 0l0 1.78125q1.375 -2.0625 3.953125 -2.0625q1.125 0 2.0625 0.40625q0.953125 0.40625 1.421875 1.0625q0.46875 0.65625 0.65625 1.5625q0.125 0.578125 0.125 2.046875l0 7.65625l-2.109375 0l0 -7.578125q0 -1.28125 -0.25 -1.921875q-0.25 -0.640625 -0.875 -1.015625q-0.625 -0.390625 -1.46875 -0.390625q-1.34375 0 -2.328125 0.859375q-0.984375 0.859375 -0.984375 3.25l0 6.796875l-2.109375 0zm17.957031 -1.890625l0.3125 1.859375q-0.890625 0.203125 -1.59375 0.203125q-1.15625 0 -1.796875 -0.359375q-0.625 -0.375 -0.890625 -0.96875q-0.25 -0.59375 -0.25 -2.484375l0 -7.171875l-1.546875 0l0 -1.640625l1.546875 0l0 -3.078125l2.09375 -1.265625l0 4.34375l2.125 0l0 1.640625l-2.125 0l0 7.28125q0 0.90625 0.109375 1.171875q0.125 0.25 0.375 0.40625q0.25 0.140625 0.71875 0.140625q0.34375 0 0.921875 -0.078125zm2.0585938 1.890625l0 -17.1875l2.109375 0l0 6.171875q1.484375 -1.71875 3.734375 -1.71875q1.375 0 2.390625 0.546875q1.03125 0.546875 1.46875 1.515625q0.4375 0.953125 0.4375 2.78125l0 7.890625l-2.109375 0l0 -7.890625q0 -1.578125 -0.6875 -2.296875q-0.6875 -0.71875 -1.9375 -0.71875q-0.9375 0 -1.765625 0.484375q-0.828125 0.484375 -1.1875 1.3125q-0.34375 0.828125 -0.34375 2.296875l0 6.8125l-2.109375 0z" fill-rule="nonzero"></path></g></svg>

