<?xml version="1.0" standalone="yes"?>

<svg version="1.1" viewBox="0.0 0.0 517.7559055118111 234.88713910761155" fill="none" stroke="none" stroke-linecap="square" stroke-miterlimit="10" xmlns="http://www.w3.org/2000/svg" xmlns:xlink="http://www.w3.org/1999/xlink"><clipPath id="p.0"><path d="m0 0l517.7559 0l0 234.88715l-517.7559 0l0 -234.88715z" clip-rule="nonzero"></path></clipPath><g clip-path="url(#p.0)"><path fill="#000000" fill-opacity="0.0" d="m0 0l517.7559 0l0 234.88715l-517.7559 0z" fill-rule="nonzero"></path><path fill="#000000" fill-opacity="0.0" d="m0 91.05774l505.6378 0l0 44.157486l-505.6378 0z" fill-rule="nonzero"></path><path fill="#000000" d="m10.40625 117.97774l0 -13.59375l2.71875 0l3.21875 9.625q0.4375 1.34375 0.640625 2.015625q0.234375 -0.75 0.734375 -2.1875l3.25 -9.453125l2.421875 0l0 13.59375l-1.734375 0l0 -11.390625l-3.953125 11.390625l-1.625 0l-3.9375 -11.578125l0 11.578125l-1.734375 0zm21.822052 -1.21875q-0.9375 0.796875 -1.796875 1.125q-0.859375 0.3125 -1.84375 0.3125q-1.609375 0 -2.484375 -0.78125q-0.875 -0.796875 -0.875 -2.03125q0 -0.734375 0.328125 -1.328125q0.328125 -0.59375 0.859375 -0.953125q0.53125 -0.359375 1.203125 -0.546875q0.5 -0.140625 1.484375 -0.25q2.03125 -0.25 2.984375 -0.578125q0 -0.34375 0 -0.4375q0 -1.015625 -0.46875 -1.4375q-0.640625 -0.5625 -1.90625 -0.5625q-1.171875 0 -1.734375 0.40625q-0.5625 0.40625 -0.828125 1.46875l-1.640625 -0.234375q0.234375 -1.046875 0.734375 -1.6875q0.515625 -0.640625 1.46875 -0.984375q0.96875 -0.359375 2.25 -0.359375q1.265625 0 2.046875 0.296875q0.78125 0.296875 1.15625 0.75q0.375 0.453125 0.515625 1.140625q0.09375 0.421875 0.09375 1.53125l0 2.234375q0 2.328125 0.09375 2.953125q0.109375 0.609375 0.4375 1.171875l-1.75 0q-0.265625 -0.515625 -0.328125 -1.21875zm-0.140625 -3.71875q-0.90625 0.359375 -2.734375 0.625q-1.03125 0.140625 -1.453125 0.328125q-0.421875 0.1875 -0.65625 0.546875q-0.234375 0.359375 -0.234375 0.796875q0 0.671875 0.5 1.125q0.515625 0.4375 1.484375 0.4375q0.96875 0 1.71875 -0.421875q0.75 -0.4375 1.109375 -1.15625q0.265625 -0.578125 0.265625 -1.671875l0 -0.609375zm3.7819672 5.75l1.609375 0.25q0.109375 0.75 0.578125 1.09375q0.609375 0.453125 1.6875 0.453125q1.171875 0 1.796875 -0.46875q0.625 -0.453125 0.859375 -1.28125q0.125 -0.515625 0.109375 -2.15625q-1.09375 1.296875 -2.71875 1.296875q-2.03125 0 -3.15625 -1.46875q-1.109375 -1.46875 -1.109375 -3.515625q0 -1.40625 0.515625 -2.59375q0.515625 -1.203125 1.484375 -1.84375q0.96875 -0.65625 2.265625 -0.65625q1.75 0 2.875 1.40625l0 -1.1875l1.546875 0l0 8.515625q0 2.3125 -0.46875 3.265625q-0.46875 0.96875 -1.484375 1.515625q-1.015625 0.5625 -2.5 0.5625q-1.765625 0 -2.859375 -0.796875q-1.078125 -0.796875 -1.03125 -2.390625zm1.375 -5.921875q0 1.953125 0.765625 2.84375q0.78125 0.890625 1.9375 0.890625q1.140625 0 1.921875 -0.890625q0.78125 -0.890625 0.78125 -2.78125q0 -1.8125 -0.8125 -2.71875q-0.796875 -0.921875 -1.921875 -0.921875q-1.109375 0 -1.890625 0.90625q-0.78125 0.890625 -0.78125 2.671875zm9.297592 5.109375l0 -9.859375l1.5 0l0 1.40625q1.09375 -1.625 3.140625 -1.625q0.890625 0 1.640625 0.328125q0.75 0.3125 1.109375 0.84375q0.375 0.515625 0.53125 1.21875q0.09375 0.46875 0.09375 1.625l0 6.0625l-1.671875 0l0 -6.0q0 -1.015625 -0.203125 -1.515625q-0.1875 -0.515625 -0.6875 -0.8125q-0.5 -0.296875 -1.171875 -0.296875q-1.0625 0 -1.84375 0.671875q-0.765625 0.671875 -0.765625 2.578125l0 5.375l-1.671875 0zm10.391342 -11.6875l0 -1.90625l1.671875 0l0 1.90625l-1.671875 0zm0 11.6875l0 -9.859375l1.671875 0l0 9.859375l-1.671875 0zm7.785446 -1.5l0.234375 1.484375q-0.703125 0.140625 -1.265625 0.140625q-0.90625 0 -1.40625 -0.28125q-0.5 -0.296875 -0.703125 -0.75q-0.203125 -0.46875 -0.203125 -1.984375l0 -5.65625l-1.234375 0l0 -1.3125l1.234375 0l0 -2.4375l1.65625 -1.0l0 3.4375l1.6875 0l0 1.3125l-1.6875 0l0 5.75q0 0.71875 0.078125 0.921875q0.09375 0.203125 0.296875 0.328125q0.203125 0.125 0.578125 0.125q0.265625 0 0.734375 -0.078125zm7.980179 1.5l0 -1.453125q-1.140625 1.671875 -3.125 1.671875q-0.859375 0 -1.625 -0.328125q-0.75 -0.34375 -1.125 -0.84375q-0.359375 -0.5 -0.515625 -1.234375q-0.09375 -0.5 -0.09375 -1.5625l0 -6.109375l1.671875 0l0 5.46875q0 1.3125 0.09375 1.765625q0.15625 0.65625 0.671875 1.03125q0.515625 0.375 1.265625 0.375q0.75 0 1.40625 -0.375q0.65625 -0.390625 0.921875 -1.046875q0.28125 -0.671875 0.28125 -1.9375l0 -5.28125l1.671875 0l0 9.859375l-1.5 0zm10.313217 0l0 -1.25q-0.9375 1.46875 -2.75 1.46875q-1.171875 0 -2.171875 -0.640625q-0.984375 -0.65625 -1.53125 -1.8125q-0.53125 -1.171875 -0.53125 -2.6875q0 -1.46875 0.484375 -2.671875q0.5 -1.203125 1.46875 -1.84375q0.984375 -0.640625 2.203125 -0.640625q0.890625 0 1.578125 0.375q0.703125 0.375 1.140625 0.984375l0 -4.875l1.65625 0l0 13.59375l-1.546875 0zm-5.28125 -4.921875q0 1.890625 0.796875 2.828125q0.8125 0.9375 1.890625 0.9375q1.09375 0 1.859375 -0.890625q0.765625 -0.890625 0.765625 -2.734375q0 -2.015625 -0.78125 -2.953125q-0.78125 -0.953125 -1.921875 -0.953125q-1.109375 0 -1.859375 0.90625q-0.75 0.90625 -0.75 2.859375zm16.016342 1.75l1.71875 0.21875q-0.40625 1.5 -1.515625 2.34375q-1.09375 0.828125 -2.8125 0.828125q-2.15625 0 -3.421875 -1.328125q-1.265625 -1.328125 -1.265625 -3.734375q0 -2.484375 1.265625 -3.859375q1.28125 -1.375 3.328125 -1.375q1.984375 0 3.234375 1.34375q1.25 1.34375 1.25 3.796875q0 0.140625 -0.015625 0.4375l-7.34375 0q0.09375 1.625 0.921875 2.484375q0.828125 0.859375 2.0625 0.859375q0.90625 0 1.546875 -0.46875q0.65625 -0.484375 1.046875 -1.546875zm-5.484375 -2.703125l5.5 0q-0.109375 -1.234375 -0.625 -1.859375q-0.796875 -0.96875 -2.078125 -0.96875q-1.140625 0 -1.9375 0.78125q-0.78125 0.765625 -0.859375 2.046875z" fill-rule="nonzero"></path><path fill="#000000" d="m153.78125 111.27461q0 -2.421875 0.5 -3.890625q0.5 -1.46875 1.46875 -2.265625q0.984375 -0.796875 2.46875 -0.796875q1.09375 0 1.921875 0.4375q0.828125 0.4375 1.359375 1.28125q0.546875 0.828125 0.84375 2.015625q0.3125 1.1875 0.3125 3.21875q0 2.390625 -0.5 3.859375q-0.484375 1.46875 -1.46875 2.28125q-0.96875 0.796875 -2.46875 0.796875q-1.96875 0 -3.078125 -1.40625q-1.359375 -1.703125 -1.359375 -5.53125zm1.71875 0q0 3.34375 0.78125 4.453125q0.796875 1.109375 1.9375 1.109375q1.15625 0 1.9375 -1.109375q0.78125 -1.125 0.78125 -4.453125q0 -3.359375 -0.78125 -4.46875q-0.78125 -1.109375 -1.953125 -1.109375q-1.15625 0 -1.828125 0.984375q-0.875 1.234375 -0.875 4.59375zm13.668396 2.625l0 -1.6875l5.125 0l0 1.6875l-5.125 0zm11.583481 0.484375l1.671875 -0.21875q0.28125 1.421875 0.96875 2.046875q0.703125 0.625 1.6875 0.625q1.1875 0 2.0 -0.8125q0.8125 -0.828125 0.8125 -2.03125q0 -1.140625 -0.765625 -1.890625q-0.75 -0.75 -1.90625 -0.75q-0.46875 0 -1.171875 0.1875l0.1875 -1.46875q0.15625 0.015625 0.265625 0.015625q1.0625 0 1.90625 -0.546875q0.859375 -0.5625 0.859375 -1.71875q0 -0.921875 -0.625 -1.515625q-0.609375 -0.609375 -1.59375 -0.609375q-0.96875 0 -1.625 0.609375q-0.640625 0.609375 -0.828125 1.84375l-1.671875 -0.296875q0.296875 -1.6875 1.375 -2.609375q1.09375 -0.921875 2.71875 -0.921875q1.109375 0 2.046875 0.484375q0.9375 0.46875 1.421875 1.296875q0.5 0.828125 0.5 1.75q0 0.890625 -0.46875 1.609375q-0.46875 0.71875 -1.40625 1.15625q1.21875 0.265625 1.875 1.15625q0.671875 0.875 0.671875 2.1875q0 1.78125 -1.296875 3.015625q-1.296875 1.234375 -3.28125 1.234375q-1.796875 0 -2.984375 -1.0625q-1.171875 -1.0625 -1.34375 -2.765625z" fill-rule="nonzero"></path><path fill="#000000" d="m249.79688 114.38399l1.671875 -0.21875q0.28125 1.421875 0.96875 2.046875q0.703125 0.625 1.6875 0.625q1.1875 0 2.0 -0.8125q0.8125 -0.828125 0.8125 -2.03125q0 -1.140625 -0.765625 -1.890625q-0.75 -0.75 -1.90625 -0.75q-0.46875 0 -1.171875 0.1875l0.1875 -1.46875q0.15625 0.015625 0.265625 0.015625q1.0625 0 1.90625 -0.546875q0.859375 -0.5625 0.859375 -1.71875q0 -0.921875 -0.625 -1.515625q-0.609375 -0.609375 -1.59375 -0.609375q-0.96875 0 -1.625 0.609375q-0.640625 0.609375 -0.828125 1.84375l-1.671875 -0.296875q0.296875 -1.6875 1.375 -2.609375q1.09375 -0.921875 2.71875 -0.921875q1.109375 0 2.046875 0.484375q0.9375 0.46875 1.421875 1.296875q0.5 0.828125 0.5 1.75q0 0.890625 -0.46875 1.609375q-0.46875 0.71875 -1.40625 1.15625q1.21875 0.265625 1.875 1.15625q0.671875 0.875 0.671875 2.1875q0 1.78125 -1.296875 3.015625q-1.296875 1.234375 -3.28125 1.234375q-1.796875 0 -2.984375 -1.0625q-1.171875 -1.0625 -1.34375 -2.765625zm15.371521 -0.484375l0 -1.6875l5.125 0l0 1.6875l-5.125 0zm11.567871 0.515625l1.765625 -0.15625q0.1875 1.28125 0.890625 1.9375q0.71875 0.640625 1.71875 0.640625q1.203125 0 2.03125 -0.90625q0.84375 -0.90625 0.84375 -2.421875q0 -1.421875 -0.8125 -2.25q-0.796875 -0.828125 -2.09375 -0.828125q-0.796875 0 -1.453125 0.375q-0.640625 0.359375 -1.015625 0.953125l-1.578125 -0.203125l1.328125 -7.0l6.765625 0l0 1.609375l-5.4375 0l-0.734375 3.640625q1.234375 -0.84375 2.578125 -0.84375q1.78125 0 3.0 1.234375q1.234375 1.234375 1.234375 3.171875q0 1.84375 -1.078125 3.1875q-1.3125 1.65625 -3.578125 1.65625q-1.859375 0 -3.03125 -1.03125q-1.171875 -1.046875 -1.34375 -2.765625z" fill-rule="nonzero"></path><path fill="#000000" d="m345.78125 114.41524l1.765625 -0.15625q0.1875 1.28125 0.890625 1.9375q0.71875 0.640625 1.71875 0.640625q1.203125 0 2.03125 -0.90625q0.84375 -0.90625 0.84375 -2.421875q0 -1.421875 -0.8125 -2.25q-0.796875 -0.828125 -2.09375 -0.828125q-0.796875 0 -1.453125 0.375q-0.640625 0.359375 -1.015625 0.953125l-1.578125 -0.203125l1.328125 -7.0l6.765625 0l0 1.609375l-5.4375 0l-0.734375 3.640625q1.234375 -0.84375 2.578125 -0.84375q1.78125 0 3.0 1.234375q1.234375 1.234375 1.234375 3.171875q0 1.84375 -1.078125 3.1875q-1.3125 1.65625 -3.578125 1.65625q-1.859375 0 -3.03125 -1.03125q-1.171875 -1.046875 -1.34375 -2.765625zm15.387146 -0.515625l0 -1.6875l5.125 0l0 1.6875l-5.125 0zm11.692871 -7.734375l0 -1.609375l8.796875 0l0 1.296875q-1.296875 1.375 -2.578125 3.671875q-1.265625 2.296875 -1.96875 4.71875q-0.5 1.703125 -0.640625 3.734375l-1.71875 0q0.03125 -1.609375 0.625 -3.875q0.609375 -2.28125 1.734375 -4.390625q1.140625 -2.109375 2.40625 -3.546875l-6.65625 0z" fill-rule="nonzero"></path><path fill="#000000" d="m441.90625 106.16524l0 -1.609375l8.796875 0l0 1.296875q-1.296875 1.375 -2.578125 3.671875q-1.265625 2.296875 -1.96875 4.71875q-0.5 1.703125 -0.640625 3.734375l-1.71875 0q0.03125 -1.609375 0.625 -3.875q0.609375 -2.28125 1.734375 -4.390625q1.140625 -2.109375 2.40625 -3.546875l-6.65625 0zm15.262146 7.734375l0 -1.6875l5.125 0l0 1.6875l-5.125 0zm17.864746 4.078125l-1.671875 0l0 -10.640625q-0.59375 0.578125 -1.578125 1.15625q-0.984375 0.5625 -1.765625 0.859375l0 -1.625q1.40625 -0.65625 2.453125 -1.59375q1.046875 -0.9375 1.484375 -1.8125l1.078125 0l0 13.65625zm4.078827 -6.703125q0 -2.421875 0.5 -3.890625q0.5 -1.46875 1.46875 -2.265625q0.984375 -0.796875 2.46875 -0.796875q1.09375 0 1.921875 0.4375q0.828125 0.4375 1.359375 1.28125q0.546875 0.828125 0.84375 2.015625q0.3125 1.1875 0.3125 3.21875q0 2.390625 -0.5 3.859375q-0.484375 1.46875 -1.46875 2.28125q-0.96875 0.796875 -2.46875 0.796875q-1.96875 0 -3.078125 -1.40625q-1.359375 -1.703125 -1.359375 -5.53125zm1.71875 0q0 3.34375 0.78125 4.453125q0.796875 1.109375 1.9375 1.109375q1.15625 0 1.9375 -1.109375q0.78125 -1.125 0.78125 -4.453125q0 -3.359375 -0.78125 -4.46875q-0.78125 -1.109375 -1.953125 -1.109375q-1.15625 0 -1.828125 0.984375q-0.875 1.234375 -0.875 4.59375z" fill-rule="nonzero"></path><path fill="#ffffff" d="m155.20735 61.74803l0 0c0 -10.097679 8.03067 -18.283466 17.937012 -18.283466l0 0c4.757187 0 9.319534 1.9262886 12.68338 5.3551025c3.3638306 3.4288177 5.2536163 8.0792885 5.2536163 12.928364l0 0c0 10.097679 -8.03067 18.283463 -17.936996 18.283463l0 0c-9.906342 0 -17.937012 -8.185783 -17.937012 -18.283463z" fill-rule="nonzero"></path><path stroke="#000000" stroke-width="1.0" stroke-linejoin="round" stroke-linecap="butt" d="m155.20735 61.74803l0 0c0 -10.097679 8.03067 -18.283466 17.937012 -18.283466l0 0c4.757187 0 9.319534 1.9262886 12.68338 5.3551025c3.3638306 3.4288177 5.2536163 8.0792885 5.2536163 12.928364l0 0c0 10.097679 -8.03067 18.283463 -17.936996 18.283463l0 0c-9.906342 0 -17.937012 -8.185783 -17.937012 -18.283463z" fill-rule="nonzero"></path><path fill="#ffffff" d="m244.73228 53.480316l0 0c0 -14.663815 11.5559845 -26.551182 25.81102 -26.551182l0 0c6.84552 0 13.410645 2.797348 18.25116 7.776661c4.8404846 4.979313 7.5598755 11.732708 7.5598755 18.77452l0 0c0 14.663811 -11.556 26.551178 -25.811035 26.551178l0 0c-14.255035 0 -25.81102 -11.887367 -25.81102 -26.551178z" fill-rule="nonzero"></path><path stroke="#000000" stroke-width="1.0" stroke-linejoin="round" stroke-linecap="butt" d="m244.73228 53.480316l0 0c0 -14.663815 11.5559845 -26.551182 25.81102 -26.551182l0 0c6.84552 0 13.410645 2.797348 18.25116 7.776661c4.8404846 4.979313 7.5598755 11.732708 7.5598755 18.77452l0 0c0 14.663811 -11.556 26.551178 -25.811035 26.551178l0 0c-14.255035 0 -25.81102 -11.887367 -25.81102 -26.551178z" fill-rule="nonzero"></path><path fill="#ffffff" d="m333.04068 47.259842l0 0c0 -18.099283 14.608917 -32.771652 32.629913 -32.771652l0 0c8.653992 0 16.953552 3.4527178 23.072845 9.598596c6.119293 6.145878 9.557098 14.481476 9.557098 23.173058l0 0c0 18.099281 -14.608917 32.771652 -32.629944 32.771652l0 0c-18.020996 0 -32.629913 -14.672371 -32.629913 -32.771652z" fill-rule="nonzero"></path><path stroke="#000000" stroke-width="1.0" stroke-linejoin="round" stroke-linecap="butt" d="m333.04068 47.259842l0 0c0 -18.099283 14.608917 -32.771652 32.629913 -32.771652l0 0c8.653992 0 16.953552 3.4527178 23.072845 9.598596c6.119293 6.145878 9.557098 14.481476 9.557098 23.173058l0 0c0 18.099281 -14.608917 32.771652 -32.629944 32.771652l0 0c-18.020996 0 -32.629913 -14.672371 -32.629913 -32.771652z" fill-rule="nonzero"></path><path fill="#ffffff" d="m423.937 40.015747l0 0c0 -22.100086 18.289337 -40.015747 40.850403 -40.015747l0 0c10.834198 0 21.22464 4.215933 28.88559 11.720342c7.660919 7.504409 11.964783 17.682571 11.964783 28.295406l0 0c0 22.10009 -18.289337 40.015747 -40.850372 40.015747l0 0c-22.561066 0 -40.850403 -17.915657 -40.850403 -40.015747z" fill-rule="nonzero"></path><path stroke="#000000" stroke-width="1.0" stroke-linejoin="round" stroke-linecap="butt" d="m423.937 40.015747l0 0c0 -22.100086 18.289337 -40.015747 40.850403 -40.015747l0 0c10.834198 0 21.22464 4.215933 28.88559 11.720342c7.660919 7.504409 11.964783 17.682571 11.964783 28.295406l0 0c0 22.10009 -18.289337 40.015747 -40.850372 40.015747l0 0c-22.561066 0 -40.850403 -17.915657 -40.850403 -40.015747z" fill-rule="nonzero"></path><path fill="#ff9900" d="m241.67848 160.91602l0 0c0 -14.663818 11.5559845 -26.551193 25.81102 -26.551193l0 0c6.84552 0 13.410645 2.797348 18.25116 7.7766724c4.8404846 4.979309 7.5598755 11.732712 7.5598755 18.77452l0 0c0 14.663803 -11.556 26.551178 -25.811035 26.551178l0 0c-14.255035 0 -25.81102 -11.887375 -25.81102 -26.551178z" fill-rule="nonzero"></path><path stroke="#000000" stroke-width="1.0" stroke-linejoin="round" stroke-linecap="butt" d="m241.67848 160.91602l0 0c0 -14.663818 11.5559845 -26.551193 25.81102 -26.551193l0 0c6.84552 0 13.410645 2.797348 18.25116 7.7766724c4.8404846 4.979309 7.5598755 11.732712 7.5598755 18.77452l0 0c0 14.663803 -11.556 26.551178 -25.811035 26.551178l0 0c-14.255035 0 -25.81102 -11.887375 -25.81102 -26.551178z" fill-rule="nonzero"></path><path fill="#ffff00" d="m344.2638 160.91602l0 0c0 -14.663818 11.555969 -26.551193 25.811005 -26.551193l0 0c6.84552 0 13.410645 2.797348 18.25116 7.7766724c4.840515 4.979309 7.5598755 11.732712 7.5598755 18.77452l0 0c0 14.663803 -11.556 26.551178 -25.811035 26.551178l0 0c-14.255035 0 -25.811005 -11.887375 -25.811005 -26.551178z" fill-rule="nonzero"></path><path stroke="#000000" stroke-width="1.0" stroke-linejoin="round" stroke-linecap="butt" d="m344.2638 160.91602l0 0c0 -14.663818 11.555969 -26.551193 25.811005 -26.551193l0 0c6.84552 0 13.410645 2.797348 18.25116 7.7766724c4.840515 4.979309 7.5598755 11.732712 7.5598755 18.77452l0 0c0 14.663803 -11.556 26.551178 -25.811035 26.551178l0 0c-14.255035 0 -25.811005 -11.887375 -25.811005 -26.551178z" fill-rule="nonzero"></path><path fill="#ff0000" d="m146.32414 160.91602l0 0c0 -14.663818 11.556 -26.551193 25.811035 -26.551193l0 0c6.8455048 0 13.410645 2.797348 18.251144 7.7766724c4.8405 4.979309 7.5598755 11.732712 7.5598755 18.77452l0 0c0 14.663803 -11.556 26.551178 -25.81102 26.551178l0 0c-14.255035 0 -25.811035 -11.887375 -25.811035 -26.551178z" fill-rule="nonzero"></path><path stroke="#000000" stroke-width="1.0" stroke-linejoin="round" stroke-linecap="butt" d="m146.32414 160.91602l0 0c0 -14.663818 11.556 -26.551193 25.811035 -26.551193l0 0c6.8455048 0 13.410645 2.797348 18.251144 7.7766724c4.8405 4.979309 7.5598755 11.732712 7.5598755 18.77452l0 0c0 14.663803 -11.556 26.551178 -25.81102 26.551178l0 0c-14.255035 0 -25.811035 -11.887375 -25.811035 -26.551178z" fill-rule="nonzero"></path><path fill="#00ff00" d="m440.40552 160.91602l0 0c0 -14.663818 11.555969 -26.551193 25.811005 -26.551193l0 0c6.84552 0 13.410645 2.797348 18.25116 7.7766724c4.840515 4.979309 7.5598755 11.732712 7.5598755 18.77452l0 0c0 14.663803 -11.556 26.551178 -25.811035 26.551178l0 0c-14.255035 0 -25.811005 -11.887375 -25.811005 -26.551178z" fill-rule="nonzero"></path><path stroke="#000000" stroke-width="1.0" stroke-linejoin="round" stroke-linecap="butt" d="m440.40552 160.91602l0 0c0 -14.663818 11.555969 -26.551193 25.811005 -26.551193l0 0c6.84552 0 13.410645 2.797348 18.25116 7.7766724c4.840515 4.979309 7.5598755 11.732712 7.5598755 18.77452l0 0c0 14.663803 -11.556 26.551178 -25.811035 26.551178l0 0c-14.255035 0 -25.811005 -11.887375 -25.811005 -26.551178z" fill-rule="nonzero"></path><path fill="#000000" fill-opacity="0.0" d="m8.43832 198.49344l700.441 0l0 44.157486l-700.441 0z" fill-rule="nonzero"></path></g></svg>

