<?xml version="1.0" standalone="yes"?>

<svg version="1.1" viewBox="0.0 0.0 398.36482939632543 397.9002624671916" fill="none" stroke="none" stroke-linecap="square" stroke-miterlimit="10" xmlns="http://www.w3.org/2000/svg" xmlns:xlink="http://www.w3.org/1999/xlink"><clipPath id="p.0"><path d="m0 0l398.36484 0l0 397.90027l-398.36484 0l0 -397.90027z" clip-rule="nonzero"></path></clipPath><g clip-path="url(#p.0)"><path fill="#000000" fill-opacity="0.0" d="m0 0l398.36484 0l0 397.90027l-398.36484 0z" fill-rule="nonzero"></path><path fill="#ffffff" d="m10.299212 199.30708l0 0c0 -105.65598 86.10234 -191.30708 192.31496 -191.30708l0 0c51.00511 0 99.92117 20.15551 135.98721 56.032547c36.06607 35.877037 56.32776 84.53674 56.32776 135.27454l0 0c0 105.65599 -86.102356 191.30708 -192.31497 191.30708l0 0c-106.212616 0 -192.31496 -85.65109 -192.31496 -191.30708z" fill-rule="nonzero"></path><path stroke="#000000" stroke-width="8.0" stroke-linejoin="round" stroke-linecap="butt" d="m10.299212 199.30708l0 0c0 -105.65598 86.10234 -191.30708 192.31496 -191.30708l0 0c51.00511 0 99.92117 20.15551 135.98721 56.032547c36.06607 35.877037 56.32776 84.53674 56.32776 135.27454l0 0c0 105.65599 -86.102356 191.30708 -192.31497 191.30708l0 0c-106.212616 0 -192.31496 -85.65109 -192.31496 -191.30708z" fill-rule="nonzero"></path></g></svg>

